Coordinates
version=1
nRows=14
nColumns=40
inDegrees=yes

Units are S.I. units (second, meters, Newtons, ...)
Angles are in degrees.

endheader
time	pelvis_tilt	pelvis_list	pelvis_rotation	pelvis_tx	pelvis_ty	pelvis_tz	hip_flexion_r	hip_adduction_r	hip_rotation_r	knee_angle_r	knee_angle_r_beta	ankle_angle_r	subtalar_angle_r	mtp_angle_r	hip_flexion_l	hip_adduction_l	hip_rotation_l	knee_angle_l	knee_angle_l_beta	ankle_angle_l	subtalar_angle_l	mtp_angle_l	lumbar_extension	lumbar_bending	lumbar_rotation	arm_flex_r	arm_add_r	arm_rot_r	elbow_flex_r	pro_sup_r	wrist_flex_r	wrist_dev_r	arm_flex_l	arm_add_l	arm_rot_l	elbow_flex_l	pro_sup_l	wrist_flex_l	wrist_dev_l
      0.76000000	     -5.07726049	     -7.13255947	      9.23763689	     -0.07344638	      0.94614746	      1.12497863	     17.15661968	      3.10361902	    -14.08850625	    -21.51548902	     -0.37551612	      2.95399086	     -7.34622294	     -1.71979409	     18.03697635	     11.11784251	      3.58350239	    -64.26915168	     -1.12170830	      4.46454562	     18.35858945	     11.31913042	      3.43597343	      4.50545398	     -8.07906697	     -4.80355366	    -10.53265956	    -26.91299763	     12.73344621	     89.95437384	      0.00000000	      0.00000000	     -0.27269113	     11.21784867	      0.96314496	     41.48151538	     89.95437384	      0.00000000	      0.00000000
      0.77000000	     -5.19739322	     -6.63338536	      9.55846840	     -0.06090136	      0.94864930	      1.12481493	     15.61746979	      2.70936226	    -14.68188285	    -20.18758894	     -0.35233990	      3.27177974	     -6.61536138	     -1.78593771	     20.02260763	      9.95372599	      3.34833942	    -64.22485282	     -1.12093514	      5.58698108	     18.49831108	     11.26578884	      3.29627580	      3.78606661	     -7.69359576	     -3.69307443	    -10.54321850	    -26.99167061	     13.63482084	     89.95437384	      0.00000000	      0.00000000	     -0.50412105	     11.35148962	      0.91043734	     39.55100329	     89.95437384	      0.00000000	      0.00000000
      0.78000000	     -4.69996345	     -5.81490974	      9.80910545	     -0.04740719	      0.95196322	      1.12443029	     13.30086888	      1.93787199	    -15.95157056	    -18.93083073	     -0.33040533	      3.93238011	     -4.07253339	     -2.53447935	     20.90180982	      8.62106800	      3.54306881	    -63.46686471	     -1.10770576	      6.66748808	     18.52506037	     13.00630656	      2.44831363	      2.83460256	     -7.16412212	     -2.48653687	    -10.50938498	    -27.38094906	     14.48908064	     89.95437384	      0.00000000	      0.00000000	     -0.82456012	     11.60106768	      0.86155196	     37.82021471	     89.95437384	      0.00000000	      0.00000000
      0.79000000	     -5.01088935	     -5.22404390	      9.65624528	     -0.03465473	      0.95362103	      1.12502078	     12.06300719	      1.57576051	    -16.00924366	    -17.75309918	     -0.30985003	      4.16745007	     -3.64509706	     -2.64182430	     22.72556231	      7.57507175	      4.04945675	    -62.61562515	     -1.09284882	      7.10773869	     18.54446512	     13.08464531	      2.52429613	      1.96906398	     -6.40730565	     -1.38851640	    -10.55766026	    -27.14797443	     15.44643776	     89.95437384	      0.00000000	      0.00000000	     -1.26881868	     11.84769118	      0.92317966	     36.09923375	     89.95437384	      0.00000000	      0.00000000
      0.80000000	     -5.01835342	     -4.52268411	      9.31178965	     -0.02152245	      0.95548982	      1.12588446	     10.46012658	      1.17203780	    -15.95652368	    -16.53195717	     -0.28853708	      4.37856958	     -2.83934998	     -2.82828819	     23.97235735	      6.67333699	      4.99852579	    -61.26190728	     -1.06922199	      7.29684803	     18.52568905	     13.32797578	      2.25334482	      1.04563865	     -5.46811340	     -0.27208095	    -10.62727527	    -26.71622474	     16.49636251	     89.95437384	      0.00000000	      0.00000000	     -1.68360377	     12.16872456	      0.94978881	     34.35129535	     89.95437384	      0.00000000	      0.00000000
      0.81000000	     -4.39573155	     -3.56951921	      8.82456389	     -0.00743470	      0.95803248	      1.12657820	      8.10037888	      0.48077215	    -16.48872954	    -15.33058904	     -0.26756926	      4.82410657	     -1.14937897	     -3.74314656	     24.11587909	      5.71717824	      6.32251426	    -59.32574101	     -1.03542951	      7.72291941	     18.42278177	     14.10332011	      1.30763562	     -0.04197548	     -4.44286374	      0.80964054	    -10.77587688	    -25.65314414	     17.68755691	     89.95437384	      0.00000000	      0.00000000	     -2.33210463	     12.52285286	      1.38525197	     33.05370047	     89.95437384	      0.00000000	      0.00000000
      0.82000000	     -4.43348526	     -2.90858248	      8.15369872	      0.00589958	      0.95905177	      1.12762029	      6.71824699	      0.05264022	    -16.33843640	    -14.35767250	     -0.25058866	      5.13637871	     -0.29203459	     -4.18114343	     25.12791519	      5.08294566	      7.69888822	    -57.32490002	     -1.00050825	      7.81938032	     18.28268803	     14.24637141	      1.13485453	     -0.89905528	     -3.25829931	      1.82133516	    -10.93491413	    -25.12361929	     18.99247400	     89.95437384	      0.00000000	      0.00000000	     -2.81944690	     12.82056209	      1.63136925	     31.34726290	     89.95437384	      0.00000000	      0.00000000
      0.83000000	     -4.46981890	     -2.32051460	      7.63883528	      0.01955883	      0.95960629	      1.12841231	      5.26888150	     -0.31257446	    -16.33256097	    -13.28304832	     -0.23183293	      5.44487882	      0.42100033	     -4.45139373	     26.08885239	      4.51140551	      8.92287839	    -55.07009065	     -0.96115440	      7.82581312	     17.91247461	     14.24573574	      1.05345344	     -1.70136638	     -2.31445998	      2.83754941	    -11.14409386	    -24.43109750	     20.19690601	     89.95437384	      0.00000000	      0.00000000	     -3.52565359	     13.20424760	      1.89699419	     29.88437330	     89.95437384	      0.00000000	      0.00000000
      0.84000000	     -3.91127689	     -1.47447319	      6.75490148	      0.03321498	      0.96070992	      1.12935802	      3.36324860	     -0.98800658	    -16.26773987	    -12.62219619	     -0.22029888	      5.93294113	      1.47917661	     -5.13682215	     26.02046468	      3.90518956	     10.63271754	    -52.19668048	     -0.91100393	      7.77447428	     17.69000292	     14.24489557	      0.22759300	     -2.64973956	     -1.10317861	      3.84066942	    -11.53291720	    -22.76185490	     21.78207703	     89.95437384	      0.00000000	      0.00000000	     -4.19277350	     13.49854619	      2.70673186	     28.57243752	     89.95437384	      0.00000000	      0.00000000
      0.85000000	     -3.63821793	     -0.81425481	      6.09025436	      0.04679696	      0.96080510	      1.12978766	      1.75208175	     -1.56068048	    -16.35496237	    -11.87979253	     -0.20734149	      6.38998659	      2.67674144	     -6.06417797	     26.33320653	      3.34772152	     11.95463788	    -49.27631930	     -0.86003402	      7.64868093	     17.12672782	     14.07913873	     -0.20958016	     -3.43214759	     -0.20812520	      4.80769628	    -11.97148384	    -21.20007898	     23.39024232	     89.95437384	      0.00000000	      0.00000000	     -4.93846352	     13.78634172	      3.45094906	     27.19914976	     89.95437384	      0.00000000	      0.00000000
      0.86000000	     -3.54698176	     -0.22514290	      5.40272737	      0.06031965	      0.96010696	      1.13022728	      0.47665196	     -2.16364071	    -16.67915846	    -11.27153746	     -0.19672544	      5.73650542	      3.94181780	    -13.68150266	     26.80488842	      2.85055036	     13.17782408	    -46.13161719	     -0.80514861	      7.05572112	     16.57169302	     12.55631490	     -0.39781985	     -4.18364376	      0.75185123	      5.74507049	    -12.36806979	    -20.06024833	     24.99413638	     89.95437384	      0.00000000	      0.00000000	     -5.66452920	     14.08463425	      4.23790182	     25.83126707	     89.95437384	      0.00000000	      0.00000000
      0.87000000	     -3.57739933	      0.11324843	      4.63602940	      0.07367349	      0.95880093	      1.13074725	     -0.60368709	     -2.40922423	    -16.15908016	    -10.76909928	     -0.18795624	      6.28291540	      4.15665770	    -13.64100762	     27.43565813	      2.76225781	     14.53218081	    -43.01847454	     -0.75081402	      6.52710682	     15.63921281	     12.41510384	     -0.41530370	     -4.62959911	      1.72677848	      6.56435905	    -12.92028866	    -18.65920826	     26.83834469	     89.95437384	      0.00000000	      0.00000000	     -6.44397947	     14.37335303	      4.93818481	     24.48968748	     89.95437384	      0.00000000	      0.00000000
      0.88000000	     -3.42619765	      0.36498217	      3.95714054	      0.08730029	      0.95740989	      1.13090505	     -1.89865779	     -2.59798962	    -15.94532269	    -10.27634747	     -0.17935610	      6.81140186	      4.50011304	    -13.73486250	     27.74513031	      2.74637258	     15.80020236	    -39.64793782	     -0.69198706	      6.07725256	     14.43106959	     12.22778673	     -0.60136836	     -4.95903092	      2.57515904	      7.40986390	    -13.48021126	    -17.47147947	     28.66602744	     89.95437384	      0.00000000	      0.00000000	     -7.19742775	     14.56335334	      5.98742182	     23.08750156	     89.95437384	      0.00000000	      0.00000000
      0.89000000	     -3.36340084	      0.53872412	      3.29701546	      0.10072831	      0.95550232	      1.13085926	     -2.99124289	     -2.78837623	    -15.89030984	     -9.96716320	     -0.17395981	      7.43756052	      5.05569459	    -13.91951811	     28.11542132	      2.78176363	     16.87663904	    -36.22269970	     -0.63220537	      5.52619679	     12.91810982	     11.95913727	     -0.69354578	     -5.18306852	      3.32219878	      8.22327125	    -14.13966010	    -16.13919439	     30.65297306	     89.95437384	      0.00000000	      0.00000000	     -8.00549474	     14.73969196	      7.10014246	     21.73028303	     89.95437384	      0.00000000	      0.00000000
